<?xml version="1.0" encoding="UTF-8"?> <svg xmlns="http://www.w3.org/2000/svg" width="486" height="77" viewBox="0 0 486 77"> <metadata> <?xpacket begin="﻿" id="W5M0MpCehiHzreSzNTczkc9d"?> <?xpacket end="w"?> </metadata> <defs> <style> .cls-1 { fill: #141412; fill-rule: evenodd; } </style> </defs> <path id="Butler_копия_2" data-name="Butler копия 2" class="cls-1" d="M142.761,36.716a8.632,8.632,0,0,0,3.968-3.058,8.427,8.427,0,0,0,1.441-4.979,7.831,7.831,0,0,0-3.26-6.723q-3.261-2.375-9.175-2.376H120.469V54.964h16.277q6.57,0,9.933-2.452a8.146,8.146,0,0,0,3.361-7,8.679,8.679,0,0,0-1.895-5.788,9.389,9.389,0,0,0-5.384-3.008h0Zm-7.279-14.053a11.379,11.379,0,0,1,6.622,1.643,5.484,5.484,0,0,1,2.325,4.777A5.482,5.482,0,0,1,142.1,33.86a11.373,11.373,0,0,1-6.622,1.643H124.21V22.663h11.272ZM136.7,51.881H124.21V38.586H136.7q9.6,0,9.605,6.622a5.642,5.642,0,0,1-2.427,5.055q-2.425,1.618-7.178,1.617h0ZM206.2,55.267q6.875,0,10.691-3.943t3.817-11.475V19.58h-3.64V39.7q0,6.168-2.78,9.2T206.2,51.931q-5.257,0-8.037-3.033t-2.78-9.2V19.58h-3.741V39.85q0,7.533,3.842,11.475T206.2,55.267h0Zm65.31-.3h3.74V22.815h12.436V19.58H259.075v3.235H271.51V54.964Zm55.5,0h23.556V51.729H330.753V19.58h-3.741V54.964Zm66.876-3.235V38.586h18.3V35.4h-18.3V22.815h20.523V19.58H390.148V54.964H415.17V51.729H393.888Zm91.7,3.235L476.94,42.832a11.618,11.618,0,0,0,5.99-4.12,11.5,11.5,0,0,0,2.1-7,11.011,11.011,0,0,0-3.842-8.9q-3.841-3.234-10.615-3.235H457.327V54.964h3.741V43.742h9.5a25.642,25.642,0,0,0,2.831-.152l8.088,11.374h4.094ZM470.47,40.558h-9.4V22.815h9.4q5.256,0,8.037,2.3a8.078,8.078,0,0,1,2.78,6.6,8.032,8.032,0,0,1-2.78,6.521q-2.781,2.326-8.037,2.325h0Z"></path> <path id="Фигура_1" data-name="Фигура 1" class="cls-1" d="M37.676,50.877c-2.389,0-4.351-2.1-6.229-3.3-3.386-2.165-5.9-4.569-5.9-8.9a11.6,11.6,0,0,1,2.842-7.363C30.6,28.544,33.431,26.7,36.859,26.7h0.053A9.212,9.212,0,0,1,43.9,29.336c1.057,0.944,2.6,4.014,3.278,5.275,0.924,1.722,1.967,2.742,1.967,4.836C49.15,46.185,44.375,50.877,37.676,50.877Zm0-1.184c6.059,0,10.29-4.213,10.29-10.246a5.346,5.346,0,0,0-1.111-3.054c-0.232-.379-0.473-0.771-0.716-1.221l-0.286-.539a23.263,23.263,0,0,0-2.738-4.414,8.109,8.109,0,0,0-6.256-2.337c-2.8,0-5.336,1.4-7.545,4.171a10.311,10.311,0,0,0-2.582,6.624c0,3.733,2.048,5.792,5.354,7.9,0.52,0.332,1.039.724,1.542,1.1,1.311,0.987,2.668,2.009,4.049,2.009m0.111-4.68c-1.26,0-2.293-1.078-3.283-1.7-1.784-1.113-3.11-2.348-3.11-4.577a5.883,5.883,0,0,1,1.5-3.786,5.76,5.76,0,0,1,4.464-2.373h0.028a4.921,4.921,0,0,1,3.686,1.356A13.464,13.464,0,0,1,42.8,36.65a4.727,4.727,0,0,1,1.037,2.486A5.721,5.721,0,0,1,37.787,45.013Zm0-1.184a4.525,4.525,0,0,0,4.863-4.693,2.162,2.162,0,0,0-.5-1.258c-0.129-.2-0.264-0.42-0.395-0.658l-0.153-.28a12.95,12.95,0,0,0-1.316-2.11,3.773,3.773,0,0,0-2.935-1.065A4.581,4.581,0,0,0,33.808,35.7a4.678,4.678,0,0,0-1.229,3.035c0,1.462.667,2.4,2.552,3.573,0.278,0.173.56,0.378,0.848,0.59a3.726,3.726,0,0,0,1.808.926m2.661,13.42q-0.548,0-1.1-.038a25.778,25.778,0,0,1-10.938-3.951C23.123,49.91,19.2,46.189,19.2,39.482a17.877,17.877,0,0,1,4.435-11.4c3.453-4.288,7.872-7.144,13.223-7.144h0.082c4.827,0.026,7.574,1.117,10.917,4.082,1.65,1.462,4.061,6.212,5.118,8.164,1.442,2.665,3.07,4.244,3.07,7.484C56.042,50.66,48.758,57.248,40.448,57.248Zm0-1.184c8.215,0,14.41-6.618,14.41-15.393,0-2.111-.808-3.413-1.829-5.062-0.358-.578-0.729-1.177-1.1-1.858-0.13-.239-0.279-0.519-0.444-0.83-1.092-2.051-3.127-5.868-4.418-7.012-3.2-2.84-5.667-3.759-10.137-3.784H36.855c-4.58,0-8.718,2.255-12.3,6.7-2.808,3.488-4.173,6.972-4.173,10.654,0,6.049,3.462,9.483,8.66,12.777a24.959,24.959,0,0,0,10.386,3.77q0.512,0.036,1.019.035m-1.085,8.054c-5.012,0-10.165-3.817-14.1-6.332-7.1-4.535-11.226-9.342-11.226-18.422,0-6.053,1.309-11.281,4.808-15.659,4.639-5.8,10.577-9.672,17.768-9.672h0.111c6.486,0.036,11.359,1.205,15.885,5.182,3.966,3.484,4.242,8.756,5.661,11.4,1.939,3.608,5.429,4.861,4.126,10.132C59.005,54.45,53.415,64.118,39.363,64.118Zm0-1.184c11.6,0,17.934-6.511,21.878-22.473,0.767-3.1-.346-4.443-1.886-6.3a17.939,17.939,0,0,1-2.133-2.992,19.114,19.114,0,0,1-1.242-3.355c-0.794-2.6-1.694-5.549-4.159-7.714-3.959-3.479-8.195-4.849-15.11-4.887h-0.1c-6.282,0-11.949,3.1-16.842,9.227-3.1,3.882-4.548,8.624-4.548,14.92,0,8.832,4.086,13.214,10.679,17.424,0.478,0.3.973,0.629,1.483,0.962,3.532,2.309,7.927,5.184,11.984,5.184M38.212,69.3c-6.3,0-12.991-3.4-16.7-5.756C12.6,57.863,7.7,50.715,7.7,39.363c0-7.565,1.937-14.1,6.332-19.573C19.859,12.535,27.317,7.7,36.346,7.7h0.14c8.144,0.045,15.082,2.467,20.725,7.484,2.783,2.474,4.6,4.927,6.333,10.362C65.1,30.429,69.3,33.3,69.3,38.788a31.917,31.917,0,0,1-9.211,21.876C54.723,66.114,47.19,69.3,38.212,69.3Zm0-1.184c8.425,0,15.7-2.863,21.033-8.282a30.8,30.8,0,0,0,8.87-21.046c0-2.94-1.392-5.109-2.864-7.4a23.053,23.053,0,0,1-2.837-5.475c-1.694-5.3-3.412-7.546-5.991-9.839C51.109,11.346,44.4,8.929,36.479,8.885H36.346c-7.987,0-15.183,3.919-21.389,11.647C10.871,25.62,8.885,31.78,8.885,39.363c0,10.183,4.093,17.332,13.269,23.181,2.051,1.307,9.269,5.571,16.059,5.571M38.5,77A38.5,38.5,0,1,1,77,38.5,38.5,38.5,0,0,1,38.5,77Zm0-2.37A36.13,36.13,0,1,0,2.37,38.5,36.171,36.171,0,0,0,38.5,74.63"></path> </svg> 